HIERARCHY
ROOT Hips
{
	OFFSET -0.001795 -0.223333 0.028219
	CHANNELS 6 Xposition Yposition Zposition Zrotation Yrotation Xrotation 
	JOINT LeftUpLeg
	{
		OFFSET 0.069520 -0.091406 -0.006815
		CHANNELS 3 Zrotation Yrotation Xrotation
		JOINT LeftLeg
		{
			OFFSET 0.034277 -0.375199 -0.004496
			CHANNELS 3 Zrotation Yrotation Xrotation
			JOINT LeftFoot
			{
				OFFSET -0.013596 -0.397961 -0.043693
				CHANNELS 3 Zrotation Yrotation Xrotation
				JOINT LeftToe
				{
					OFFSET 0.026358 -0.055791 0.119288
					CHANNELS 3 Zrotation Yrotation Xrotation
					End Site
					{
						OFFSET 0.000000 0.000000 0.000000
					}
				}
			}
		}
	}
	JOINT RightUpLeg
	{
		OFFSET -0.067670 -0.090522 -0.004320
		CHANNELS 3 Zrotation Yrotation Xrotation
		JOINT RightLeg
		{
			OFFSET -0.038290 -0.382569 -0.008850
			CHANNELS 3 Zrotation Yrotation Xrotation
			JOINT RightFoot
			{
				OFFSET 0.015774 -0.398415 -0.042312
				CHANNELS 3 Zrotation Yrotation Xrotation
				JOINT RightToe
				{
					OFFSET -0.025372 -0.048144 0.123348
					CHANNELS 3 Zrotation Yrotation Xrotation
					End Site
					{
						OFFSET 0.000000 0.000000 0.000000
					}
				}
			}
		}
	}
	JOINT Spine
	{
		OFFSET -0.002533 0.108963 -0.026696
		CHANNELS 3 Zrotation Yrotation Xrotation
		JOINT Spine1
		{
			OFFSET 0.005487 0.135180 0.001092
			CHANNELS 3 Zrotation Yrotation Xrotation
			JOINT Spine2
			{
				OFFSET 0.001457 0.052922 0.025425
				CHANNELS 3 Zrotation Yrotation Xrotation
				JOINT Neck
				{
					OFFSET -0.002778 0.213870 -0.042857
					CHANNELS 3 Zrotation Yrotation Xrotation
					JOINT Head
					{
						OFFSET 0.005152 0.064970 0.051349
						CHANNELS 3 Zrotation Yrotation Xrotation
						End Site
						{
							OFFSET 0.000000 0.000000 0.000000
						}
					}
				}
				JOINT LeftShoulder
				{
					OFFSET 0.078845 0.121749 -0.034090
					CHANNELS 3 Zrotation Yrotation Xrotation
					JOINT LeftArm
					{
						OFFSET 0.090977 0.030469 -0.008868
						CHANNELS 3 Zrotation Yrotation Xrotation
						JOINT LeftForeArm
						{
							OFFSET 0.259612 -0.012772 -0.027456
							CHANNELS 3 Zrotation Yrotation Xrotation
							JOINT LeftHand
							{
								OFFSET 0.249234 0.008986 -0.001171
								CHANNELS 3 Zrotation Yrotation Xrotation
								End Site
								{
									OFFSET 0.000000 0.000000 0.000000
								}
							}
						}
					}
				}
				JOINT RightShoulder
				{
					OFFSET -0.081759 0.118833 -0.038615
					CHANNELS 3 Zrotation Yrotation Xrotation
					JOINT RightArm
					{
						OFFSET -0.096012 0.032551 -0.009143
						CHANNELS 3 Zrotation Yrotation Xrotation
						JOINT RightForeArm
						{
							OFFSET -0.253742 -0.013329 -0.021401
							CHANNELS 3 Zrotation Yrotation Xrotation
							JOINT RightHand
							{
								OFFSET -0.255298 0.007772 -0.005559
								CHANNELS 3 Zrotation Yrotation Xrotation
								End Site
								{
									OFFSET 0.000000 0.000000 0.000000
								}
							}
						}
					}
				}
			}
		}
	}
}
MOTION
Frames: 15
Frame Time: 0.050000
-0.047309 0.955632 1.096217 3.003195 -23.415987 -2.756247 -0.559828 -0.854765 -10.665424 -2.432504 0.579003 7.346305 -2.000981 -1.185071 13.357651 0.000000 0.000000 0.000000 -3.690446 0.852442 -8.894180 9.374497 4.413566 57.222719 -1.666258 -9.586871 11.845861 0.000000 0.000000 0.000000 -7.674961 0.401532 5.761421 5.484480 -0.711102 -26.197276 -0.283232 -2.362720 37.173506 0.177227 -1.545255 -28.955230 0.000000 0.000000 0.000000 -26.916493 9.236087 -1.037294 -48.813280 -15.436360 -4.451007 -17.347924 -26.539191 6.836155 0.000000 0.000000 0.000000 15.632081 1.978066 -4.092703 57.671731 2.332717 -7.678961 15.090292 29.065810 3.585878 0.000000 0.000000 0.000000 
-0.056663 0.961039 1.133209 2.794908 -25.262930 -2.895759 -0.214257 -0.564250 -6.714302 -3.056976 0.676637 5.311907 -1.074583 -0.128296 12.267083 0.000000 0.000000 0.000000 -3.828193 1.262255 -12.823550 10.973077 3.521559 54.462993 -3.531450 -12.823016 10.679676 0.000000 0.000000 0.000000 -7.006840 0.382417 6.409644 5.548038 -0.660049 -26.782420 -1.269585 -4.304513 37.479303 -0.659796 -1.683509 -28.081213 0.000000 0.000000 0.000000 -26.981103 8.966363 0.263967 -47.474380 -17.711050 -3.910335 -16.975552 -28.092318 7.293449 0.000000 0.000000 0.000000 15.876583 2.810533 -4.708041 57.198836 1.011771 -8.009013 15.227492 29.578954 3.309291 0.000000 0.000000 0.000000 
-0.067372 0.964097 1.167110 2.225923 -27.190728 -2.641904 0.310170 -0.256102 -3.290953 -3.521044 0.731725 3.370041 -0.156582 1.135832 11.873681 0.000000 0.000000 0.000000 -3.782248 1.669620 -15.889204 11.993706 2.618336 49.428477 -4.595983 -14.433967 8.598673 0.000000 0.000000 0.000000 -6.355768 0.348425 6.680149 5.623461 -0.699844 -26.622234 -1.996925 -5.444962 37.427873 -1.030042 -1.869896 -28.019678 0.000000 0.000000 0.000000 -26.713991 8.484939 1.341406 -46.808408 -19.645919 -3.307344 -14.922685 -30.324262 7.412245 0.000000 0.000000 0.000000 16.396223 3.379733 -5.376737 56.732268 0.439097 -7.896564 15.311807 30.100843 3.091442 0.000000 0.000000 0.000000 
-0.079467 0.965208 1.198341 1.441391 -29.067320 -2.453502 0.679858 0.060763 -0.091793 -3.780882 0.767777 2.067603 0.856704 2.559901 10.268702 0.000000 0.000000 0.000000 -3.291938 2.110659 -18.404192 11.718364 2.107359 42.729993 -4.544083 -14.641629 8.477168 0.000000 0.000000 0.000000 -5.193560 0.288308 7.757226 5.044422 -0.616187 -26.695726 -2.096402 -6.314969 36.828065 -1.759716 -1.778383 -27.576534 0.000000 0.000000 0.000000 -26.414421 7.851707 2.328697 -46.255141 -21.110277 -2.758407 -12.919120 -31.276017 7.047882 0.000000 0.000000 0.000000 16.553790 3.400704 -6.067331 56.579782 -0.179403 -7.933795 15.826511 30.652328 3.004384 0.000000 0.000000 0.000000 
-0.092923 0.964086 1.227631 0.890926 -30.610928 -2.132913 0.426186 0.398071 3.046689 -3.222232 0.618307 0.069672 1.289708 3.187176 9.631304 0.000000 0.000000 0.000000 -2.936010 2.461715 -20.082288 9.946819 1.757304 34.445813 -3.926139 -13.981302 8.822601 0.000000 0.000000 0.000000 -4.948890 0.297584 8.262536 5.666566 -0.647202 -27.191944 -2.889709 -7.028854 36.622785 -1.834466 -2.008170 -26.989095 0.000000 0.000000 0.000000 -26.767642 8.027104 2.812535 -45.642019 -22.079596 -2.556949 -11.760637 -32.137699 6.964664 0.000000 0.000000 0.000000 16.229239 3.088180 -6.657751 57.140814 -0.444711 -8.117212 16.572358 31.449761 2.995705 0.000000 0.000000 0.000000 
-0.107911 0.961447 1.255659 0.441615 -32.246308 -1.427804 0.438734 0.720212 5.462587 -2.942273 0.565117 -0.989530 2.174616 4.734894 8.352609 0.000000 0.000000 0.000000 -2.335833 2.807427 -21.355984 6.848764 1.391168 24.721782 -3.065655 -13.321442 9.959713 0.000000 0.000000 0.000000 -4.400098 0.289575 8.979151 5.398897 -0.471206 -28.093218 -2.621280 -7.622971 36.396288 -1.985452 -2.158485 -27.724943 0.000000 0.000000 0.000000 -27.075780 8.182054 3.243485 -45.323900 -22.358905 -2.532485 -11.437699 -32.981892 7.100234 0.000000 0.000000 0.000000 15.911755 2.601395 -7.243719 57.294466 -0.561266 -8.189184 16.836612 31.760426 2.863499 0.000000 0.000000 0.000000 
-0.124536 0.957563 1.283372 0.292206 -33.423115 -1.110023 -0.074955 1.081062 7.786048 -2.025860 0.404002 -2.155597 2.713989 5.792197 7.423129 0.000000 0.000000 0.000000 -2.537012 2.758467 -21.055780 5.006288 0.585015 14.349801 -2.158961 -13.341300 12.752539 0.000000 0.000000 0.000000 -4.168219 0.283237 9.168110 5.015444 -0.379597 -28.266494 -2.802225 -7.785777 35.802834 -1.839066 -2.334611 -27.779684 0.000000 0.000000 0.000000 -27.034175 8.534461 3.202614 -45.526759 -22.183558 -2.511689 -11.247835 -33.308332 7.173576 0.000000 0.000000 0.000000 15.348039 2.404489 -7.329815 58.107499 -0.919883 -8.631171 17.786824 32.516843 3.010536 0.000000 0.000000 0.000000 
-0.143601 0.952031 1.311714 0.796160 -34.025235 -1.118773 -0.538209 1.493316 10.032062 -1.818707 0.381383 -3.162266 2.799503 6.102394 6.139031 0.000000 0.000000 0.000000 -3.938227 2.594826 -20.780069 5.122733 0.023667 5.228621 -2.536378 -15.432942 16.075851 0.000000 0.000000 0.000000 -4.100816 0.302809 9.501027 4.080596 -0.026183 -29.567372 -3.064454 -9.241037 36.418597 -2.163722 -2.489523 -28.512578 0.000000 0.000000 0.000000 -27.313891 9.450481 3.197231 -45.995066 -22.550321 -2.421021 -11.204298 -33.735932 7.393452 0.000000 0.000000 0.000000 14.540809 2.560869 -7.477020 59.358410 -1.180360 -9.240712 18.184229 32.647740 2.838497 0.000000 0.000000 0.000000 
-0.165479 0.945379 1.340805 1.014372 -35.281409 -0.847183 -1.012359 1.893068 11.849003 -0.746892 0.221321 -3.546005 2.811435 6.278787 4.798735 0.000000 0.000000 0.000000 -4.604586 2.564340 -20.684835 4.944319 -0.006349 -1.112425 -4.666235 -19.165091 18.032648 0.000000 0.000000 0.000000 -3.584472 0.218674 8.853384 3.681344 0.089097 -29.940218 -3.572870 -8.975626 36.208979 -1.611584 -2.887499 -27.732894 0.000000 0.000000 0.000000 -26.554701 9.824852 2.843579 -47.768471 -21.178986 -2.484921 -12.495103 -33.641435 7.852085 0.000000 0.000000 0.000000 14.808430 3.245259 -7.505389 59.205784 -1.565384 -9.287408 18.348665 32.714408 2.802352 0.000000 0.000000 0.000000 
-0.190721 0.938622 1.370442 1.572657 -36.058842 -0.902803 -1.297608 2.254760 13.352414 -0.701607 0.203360 -3.115457 3.090622 7.068930 3.792100 0.000000 0.000000 0.000000 -4.599443 2.494826 -20.183281 4.242120 0.074615 -4.653838 -6.321285 -21.826299 20.250675 0.000000 0.000000 0.000000 -3.704782 0.240703 8.867015 4.016444 0.151525 -30.572081 -4.001254 -9.067688 35.861919 -1.803909 -2.875155 -27.355411 0.000000 0.000000 0.000000 -26.679712 9.959417 2.918675 -49.328098 -20.651345 -2.466548 -12.917931 -33.153799 7.863799 0.000000 0.000000 0.000000 13.915515 3.183284 -7.192275 60.106923 -1.377970 -9.718821 17.116957 32.266961 2.429680 0.000000 0.000000 0.000000 
-0.219575 0.932912 1.400339 1.248436 -36.284288 -0.560910 -0.407466 2.556251 14.939700 -0.979703 0.224124 -1.509768 2.694252 6.441891 2.510554 0.000000 0.000000 0.000000 -3.145738 2.475645 -19.479503 3.227592 0.028499 -4.131170 -5.293300 -20.862260 21.423320 0.000000 0.000000 0.000000 -2.522630 0.071637 8.040168 2.284287 0.358218 -30.502790 -3.078802 -10.130236 35.628007 -1.962357 -2.938268 -26.630957 0.000000 0.000000 0.000000 -27.355571 10.868526 2.716015 -50.572825 -19.945804 -2.610551 -13.263740 -31.545673 7.502877 0.000000 0.000000 0.000000 13.507712 3.362889 -7.231573 59.691749 -1.989680 -9.935943 17.231710 31.830466 2.263989 0.000000 0.000000 0.000000 
-0.252219 0.931025 1.429792 0.914308 -37.201055 -0.216154 0.855392 2.682623 15.796252 -1.206148 0.312350 2.557914 2.101786 5.290630 1.312427 0.000000 0.000000 0.000000 -2.180010 2.512268 -19.209910 3.819106 0.010365 -0.399573 -6.909754 -22.942617 22.103818 0.000000 0.000000 0.000000 -2.028404 0.013605 7.574328 2.205118 0.553098 -31.541414 -3.076251 -10.985698 36.579514 -2.855848 -2.714009 -27.243973 0.000000 0.000000 0.000000 -28.313923 11.853161 2.762294 -51.200219 -18.714550 -3.330014 -14.583769 -31.346982 7.955953 0.000000 0.000000 0.000000 13.354051 2.223101 -8.150177 59.255918 -2.626499 -10.228015 17.845025 31.134205 2.153926 0.000000 0.000000 0.000000 
-0.287687 0.933832 1.457288 0.656586 -38.787404 0.164363 2.182727 2.392642 14.634372 -1.183337 0.693796 8.802240 1.230554 3.097097 3.316112 0.000000 0.000000 0.000000 -0.688872 2.447551 -18.252862 4.559179 0.057176 2.150118 -7.314126 -23.211573 20.908953 0.000000 0.000000 0.000000 -1.679196 -0.039939 6.234011 2.463323 0.138721 -29.277164 -2.728001 -11.196197 34.983129 -2.768807 -2.845774 -27.361998 0.000000 0.000000 0.000000 -28.743326 12.798809 2.363602 -52.488486 -17.809938 -3.419445 -13.573250 -30.728308 7.492625 0.000000 0.000000 0.000000 13.906973 3.241621 -8.281556 57.582196 -3.071281 -9.557403 17.277524 31.273287 1.906680 0.000000 0.000000 0.000000 
-0.324140 0.938820 1.481691 0.192734 -40.592997 0.450163 3.692998 1.689804 10.843888 -1.197697 2.215738 18.985585 0.208621 0.844059 4.447848 0.000000 0.000000 0.000000 0.774238 2.135754 -16.209505 4.917763 0.120801 3.819724 -6.258785 -21.284070 18.013315 0.000000 0.000000 0.000000 -1.585781 -0.052029 5.560409 2.964274 -0.008625 -28.790455 -2.307315 -11.016884 34.221710 -2.957747 -2.807237 -26.563995 0.000000 0.000000 0.000000 -28.574293 13.709972 1.836339 -53.428383 -15.791811 -3.976544 -13.816355 -30.450286 7.569464 0.000000 0.000000 0.000000 12.732851 2.771566 -8.031918 57.541572 -2.695543 -9.645908 17.399166 30.639610 1.759004 0.000000 0.000000 0.000000 
-0.358872 0.942871 1.502282 -0.853773 -43.397132 0.807173 5.734093 1.155356 5.724820 0.572247 5.248755 32.399771 -2.270125 -3.541197 8.319621 0.000000 0.000000 0.000000 3.781182 1.807861 -13.757812 3.945531 0.211295 4.621274 -4.917374 -18.715978 15.217244 0.000000 0.000000 0.000000 -0.819960 -0.108460 5.532973 3.908490 -0.145236 -28.692334 -2.307727 -9.294047 34.303200 -3.062034 -2.796133 -26.954409 0.000000 0.000000 0.000000 -28.275433 13.447683 2.028091 -53.216948 -15.250687 -4.216447 -14.707641 -29.865335 7.595872 0.000000 0.000000 0.000000 12.999741 3.268808 -7.997127 56.441288 -2.579627 -9.252160 16.632020 30.380290 1.635934 0.000000 0.000000 0.000000 
